<svg id="svg" version="1.1" xmlns="http://www.w3.org/2000/svg" xmlns:xlink="http://www.w3.org/1999/xlink" width="400" height="400" viewBox="0, 0, 400,400"><g id="svgg"><path id="path0" d="M239.100 158.432 C 238.483 158.791,238.400 159.544,238.400 164.758 C 238.400 172.442,238.859 172.000,230.876 172.000 C 223.664 172.000,224.319 171.221,224.485 179.600 L 224.600 185.400 249.000 185.400 L 273.400 185.400 273.400 178.800 L 273.400 172.200 263.285 172.000 C 251.281 171.763,252.414 172.515,252.406 164.780 C 252.402 160.794,252.249 158.809,251.920 158.480 C 251.316 157.876,240.126 157.834,239.100 158.432 M62.480 172.480 C 61.973 172.987,61.787 182.964,62.252 184.700 L 62.493 185.600 90.057 185.600 L 117.620 185.600 118.010 184.574 C 118.588 183.054,118.514 173.074,117.920 172.480 C 117.226 171.786,63.174 171.786,62.480 172.480 M133.100 172.432 C 131.949 173.102,132.022 254.970,133.174 255.586 C 134.295 256.186,145.311 256.129,145.920 255.520 C 146.278 255.162,146.400 250.897,146.400 238.796 C 146.400 225.403,146.500 222.417,146.967 221.776 C 147.803 220.634,180.671 220.336,181.496 221.463 C 181.882 221.992,182.000 226.001,182.000 238.596 C 182.000 250.853,182.122 255.162,182.480 255.520 C 182.811 255.851,184.836 256.000,189.000 256.000 C 193.164 256.000,195.189 255.851,195.520 255.520 C 196.216 254.824,196.216 173.176,195.520 172.480 C 195.189 172.149,193.164 172.000,189.000 172.000 C 184.836 172.000,182.811 172.149,182.480 172.480 C 182.122 172.838,182.000 177.154,182.000 189.431 C 182.000 203.009,181.902 205.983,181.444 206.364 C 180.513 207.136,147.289 206.787,146.791 206.000 C 146.569 205.648,146.410 198.695,146.406 189.180 C 146.402 177.105,146.277 172.837,145.920 172.480 C 145.316 171.876,134.126 171.834,133.100 172.432 M288.480 172.480 C 287.974 172.986,287.770 183.736,288.243 184.967 C 288.457 185.527,290.025 185.600,301.763 185.600 C 311.556 185.600,315.166 185.726,315.520 186.080 C 315.886 186.446,316.000 194.709,316.000 220.831 C 316.000 249.527,316.090 255.177,316.554 255.561 C 316.932 255.876,319.113 255.986,323.454 255.910 L 329.800 255.800 329.902 221.347 C 329.995 189.926,330.062 186.846,330.663 186.347 C 331.184 185.915,334.079 185.774,344.480 185.675 L 357.639 185.550 358.019 184.549 C 358.590 183.048,358.508 173.068,357.920 172.480 C 357.224 171.784,289.176 171.784,288.480 172.480 M48.489 186.471 C 47.722 187.238,47.784 240.923,48.554 241.561 C 48.932 241.876,51.113 241.986,55.454 241.910 L 61.800 241.800 61.800 214.000 L 61.800 186.200 55.389 186.091 C 50.742 186.011,48.844 186.116,48.489 186.471 M210.890 186.470 C 210.373 186.987,210.150 204.482,210.643 205.767 C 210.851 206.309,211.833 206.400,217.450 206.400 L 224.014 206.400 223.907 196.300 L 223.800 186.200 217.590 186.090 C 213.098 186.011,211.244 186.116,210.890 186.470 M76.439 208.060 C 75.852 209.744,75.871 218.479,76.464 219.781 L 76.928 220.800 90.015 220.800 C 101.693 220.800,103.161 220.871,103.651 221.461 C 104.076 221.972,104.227 224.362,104.320 232.061 L 104.439 242.000 110.940 242.000 C 115.462 242.000,117.586 241.854,117.920 241.520 C 118.716 240.724,118.595 209.537,117.790 207.980 L 117.179 206.800 97.029 206.800 L 76.878 206.800 76.439 208.060 M224.400 213.026 C 224.400 221.788,222.136 220.800,242.206 220.800 L 259.185 220.800 259.424 219.846 C 260.045 217.371,259.427 208.053,258.600 207.429 C 257.917 206.914,255.355 206.824,241.100 206.813 L 224.400 206.800 224.400 213.026 M260.180 221.708 C 260.073 221.987,260.034 226.622,260.093 232.008 L 260.200 241.800 266.800 241.800 L 273.400 241.800 273.507 232.000 C 273.604 223.141,273.549 222.152,272.931 221.700 C 271.955 220.986,260.454 220.993,260.180 221.708 M62.252 243.300 C 61.739 245.215,61.975 255.081,62.545 255.555 C 62.939 255.882,68.747 255.979,83.445 255.904 L 103.800 255.800 103.910 249.100 L 104.019 242.400 83.256 242.400 L 62.493 242.400 62.252 243.300 M210.577 242.917 C 210.468 243.201,210.428 246.216,210.489 249.617 L 210.600 255.800 224.000 256.000 C 231.370 256.110,237.625 256.346,237.900 256.524 C 238.264 256.759,238.400 258.512,238.400 262.975 C 238.400 270.634,237.953 270.156,245.286 270.339 C 252.778 270.526,252.400 270.918,252.400 262.962 C 252.400 256.020,252.213 256.383,255.942 256.099 C 257.404 255.987,258.825 255.717,259.100 255.499 C 259.728 255.000,259.803 244.326,259.186 243.174 C 258.657 242.184,210.954 241.932,210.577 242.917 " stroke="none" fill="#fbf9fc" fill-rule="evenodd"></path><path id="path1" d="M0.000 247.100 L 0.000 278.600 200.000 278.600 L 400.000 278.600 400.000 247.100 L 400.000 215.600 366.728 215.600 C 341.841 215.600,333.122 215.721,332.128 216.080 L 330.800 216.561 330.800 236.200 C 330.800 250.942,330.680 255.960,330.320 256.320 C 329.646 256.994,316.754 256.994,316.080 256.320 C 315.720 255.960,315.599 251.029,315.595 236.620 C 315.592 226.049,315.481 216.995,315.348 216.500 L 315.107 215.600 288.167 215.600 C 258.278 215.600,260.400 215.409,260.400 218.094 C 260.400 219.834,260.995 220.000,267.218 220.000 C 275.188 220.000,274.566 219.066,274.726 231.271 C 274.892 243.815,275.551 242.800,267.241 242.800 L 260.900 242.800 260.650 244.050 C 260.513 244.737,260.400 247.671,260.400 250.570 C 260.400 256.758,260.377 256.800,256.934 256.800 C 253.682 256.800,253.600 256.970,253.600 263.743 L 253.600 269.138 252.369 270.369 L 251.138 271.600 246.229 271.600 C 237.830 271.600,237.602 271.400,237.595 264.024 C 237.592 261.041,237.481 258.195,237.348 257.700 L 237.107 256.800 223.833 256.800 C 214.043 256.800,210.434 256.674,210.080 256.320 C 209.406 255.646,209.406 242.754,210.080 242.080 C 210.442 241.718,216.260 241.599,233.780 241.595 C 246.551 241.592,257.405 241.481,257.900 241.348 L 258.800 241.107 258.800 231.961 L 258.800 222.815 257.900 222.608 C 257.405 222.494,249.829 222.355,241.064 222.300 L 225.129 222.200 224.364 221.256 C 223.929 220.717,223.598 219.686,223.595 218.856 C 223.592 218.055,223.481 216.995,223.348 216.500 L 223.107 215.600 209.953 215.600 L 196.800 215.600 196.800 235.426 C 196.800 248.328,196.655 255.523,196.386 256.026 C 195.855 257.018,182.858 257.234,182.053 256.264 C 181.747 255.895,181.577 250.581,181.504 239.164 L 181.400 222.600 165.400 222.489 C 156.600 222.428,148.995 222.476,148.500 222.596 L 147.600 222.815 147.600 238.822 C 147.600 258.859,148.515 256.800,139.616 256.800 C 130.593 256.800,131.601 259.369,131.595 236.369 C 131.588 212.983,132.291 215.600,126.015 215.600 C 119.001 215.600,119.600 214.354,119.600 228.946 C 119.600 244.155,120.340 242.800,112.034 242.800 C 104.233 242.800,104.800 242.252,104.800 249.800 C 104.800 253.964,104.651 255.989,104.320 256.320 C 103.628 257.012,62.772 257.012,62.080 256.320 C 61.758 255.998,61.599 254.186,61.596 250.820 C 61.593 248.059,61.480 245.125,61.343 244.300 L 61.095 242.800 54.776 242.800 C 46.361 242.800,47.200 244.326,47.200 229.011 L 47.200 216.478 45.940 216.039 C 45.084 215.741,37.529 215.600,22.340 215.600 L 0.000 215.600 0.000 247.100 M62.800 228.604 L 62.800 241.607 83.100 241.504 L 103.400 241.400 103.400 232.000 L 103.400 222.600 90.200 222.502 C 75.199 222.390,75.606 222.486,75.595 219.056 C 75.583 215.433,75.904 215.600,68.953 215.600 L 62.800 215.600 62.800 228.604 " stroke="none" fill="#ac14fb" fill-rule="evenodd"></path><path id="path2" d="M19.900 278.677 C 19.245 278.847,19.200 280.146,19.200 298.829 L 19.200 318.800 29.200 318.800 L 39.200 318.800 39.200 329.800 L 39.200 340.800 49.200 340.800 L 59.200 340.800 59.200 350.800 L 59.200 360.800 70.200 360.800 L 81.200 360.800 81.200 370.800 L 81.200 380.800 101.200 380.800 L 121.200 380.800 121.200 390.400 L 121.200 400.000 200.200 400.000 L 279.200 400.000 279.200 390.400 L 279.200 380.800 299.000 380.800 L 318.800 380.800 318.800 370.800 L 318.800 360.800 329.800 360.800 L 340.800 360.800 340.800 350.800 L 340.800 340.800 350.800 340.800 L 360.800 340.800 360.800 329.800 L 360.800 318.800 370.800 318.800 L 380.800 318.800 380.800 298.852 L 380.800 278.905 379.300 278.656 C 377.601 278.375,20.982 278.395,19.900 278.677 " stroke="none" fill="#7c1cfb" fill-rule="evenodd"></path><path id="path3" d="M121.200 9.600 L 121.200 19.200 101.200 19.200 L 81.200 19.200 81.200 29.200 L 81.200 39.200 70.223 39.200 L 59.247 39.200 59.214 49.076 C 59.196 54.508,59.130 59.003,59.067 59.067 C 59.003 59.130,54.508 59.196,49.076 59.214 L 39.200 59.247 39.200 70.223 L 39.200 81.200 29.200 81.200 L 19.200 81.200 19.200 101.200 L 19.200 121.200 9.600 121.200 L 0.000 121.200 0.000 137.600 L 0.000 154.000 200.000 154.000 L 400.000 154.000 400.000 137.600 L 400.000 121.200 390.400 121.200 L 380.800 121.200 380.800 101.200 L 380.800 81.200 370.800 81.200 L 360.800 81.200 360.753 70.500 C 360.727 64.615,360.727 59.665,360.753 59.500 C 360.779 59.335,356.300 59.200,350.800 59.200 L 340.800 59.200 340.753 49.500 C 340.727 44.165,340.727 39.665,340.753 39.500 C 340.779 39.335,335.850 39.200,329.800 39.200 L 318.800 39.200 318.800 29.200 L 318.800 19.200 298.800 19.200 L 278.800 19.200 278.800 9.600 L 278.800 0.000 200.000 0.000 L 121.200 0.000 121.200 9.600 M238.223 158.089 C 237.733 158.789,237.600 160.145,237.600 164.456 C 237.600 171.867,238.255 171.200,230.980 171.200 C 223.158 171.200,223.600 170.729,223.600 179.061 L 223.600 185.145 217.167 185.272 C 208.882 185.437,209.600 184.391,209.600 196.295 L 209.600 205.636 210.582 206.618 C 211.534 207.570,211.738 207.600,217.374 207.600 C 224.168 207.600,223.367 206.767,223.913 214.400 L 224.271 219.400 224.336 213.100 L 224.400 206.800 241.100 206.813 C 261.167 206.828,259.317 206.258,259.610 212.517 C 259.815 216.903,259.827 216.949,260.161 214.658 C 260.663 211.218,260.265 207.286,259.344 206.589 C 258.734 206.127,255.724 206.022,242.600 206.007 C 233.800 205.997,226.192 205.880,225.693 205.746 L 224.786 205.503 224.893 196.051 L 225.000 186.600 249.315 186.400 C 270.345 186.227,273.681 186.119,274.009 185.600 C 274.526 184.781,274.506 172.946,273.986 171.974 C 273.595 171.243,273.057 171.200,264.261 171.200 L 254.950 171.200 253.875 170.078 C 252.817 168.974,252.800 168.871,252.800 163.558 C 252.800 159.893,252.646 158.006,252.320 157.680 C 251.322 156.682,238.957 157.041,238.223 158.089 M251.920 158.480 C 252.249 158.809,252.402 160.794,252.406 164.780 C 252.414 172.515,251.281 171.763,263.285 172.000 L 273.400 172.200 273.400 178.800 L 273.400 185.400 249.000 185.400 L 224.600 185.400 224.485 179.600 C 224.319 171.221,223.664 172.000,230.876 172.000 C 238.859 172.000,238.400 172.442,238.400 164.758 C 238.400 159.544,238.483 158.791,239.100 158.432 C 240.126 157.834,251.316 157.876,251.920 158.480 M62.014 171.974 C 61.780 172.412,61.600 175.447,61.600 178.974 L 61.600 185.200 55.200 185.200 C 46.344 185.200,47.193 183.634,47.230 199.900 C 47.246 207.105,47.403 213.810,47.580 214.800 C 47.770 215.871,47.920 210.584,47.950 201.749 C 47.991 189.636,48.102 186.813,48.554 186.439 C 48.932 186.124,51.113 186.014,55.454 186.090 L 61.800 186.200 62.005 201.400 L 62.210 216.600 62.405 201.600 L 62.600 186.600 90.162 186.497 C 109.713 186.424,117.881 186.265,118.262 185.948 C 118.990 185.344,119.043 172.403,118.320 171.680 C 117.371 170.731,62.526 171.017,62.014 171.974 M132.223 172.089 C 131.533 173.074,131.317 210.675,131.980 214.400 C 132.161 215.418,132.322 206.779,132.350 194.514 C 132.398 173.510,132.424 172.815,133.174 172.414 C 134.295 171.814,145.311 171.871,145.920 172.480 C 146.277 172.837,146.402 177.105,146.406 189.180 C 146.410 198.695,146.569 205.648,146.791 206.000 C 147.289 206.787,180.513 207.136,181.444 206.364 C 181.902 205.983,182.000 203.009,182.000 189.431 C 182.000 177.154,182.122 172.838,182.480 172.480 C 183.199 171.761,194.946 171.812,195.548 172.537 C 195.860 172.913,196.025 179.580,196.100 194.837 L 196.207 216.600 196.304 194.380 C 196.377 177.522,196.284 172.044,195.920 171.680 C 195.006 170.766,182.519 171.030,182.014 171.974 C 181.748 172.470,181.600 178.481,181.600 188.741 C 181.600 197.537,181.491 205.019,181.357 205.367 C 181.054 206.158,150.285 206.336,148.060 205.561 L 146.800 205.122 146.800 188.641 C 146.800 176.356,146.678 172.038,146.320 171.680 C 145.322 170.682,132.957 171.041,132.223 172.089 M287.823 172.089 C 286.856 173.469,286.918 184.371,287.900 185.557 C 288.584 186.384,288.904 186.406,302.000 186.502 L 315.400 186.600 315.608 201.200 L 315.815 215.800 315.908 201.180 C 315.977 190.237,315.879 186.439,315.520 186.080 C 315.166 185.726,311.556 185.600,301.763 185.600 C 290.025 185.600,288.457 185.527,288.243 184.967 C 287.770 183.736,287.974 172.986,288.480 172.480 C 289.176 171.784,357.224 171.784,357.920 172.480 C 358.508 173.068,358.590 183.048,358.019 184.549 L 357.639 185.550 344.480 185.675 C 334.057 185.774,331.184 185.914,330.661 186.349 C 330.055 186.852,330.006 189.741,330.067 221.149 L 330.134 255.400 330.496 221.204 C 330.696 202.396,330.950 186.916,331.062 186.804 C 331.174 186.692,337.226 186.548,344.511 186.484 C 353.264 186.408,357.933 186.221,358.278 185.935 C 358.992 185.343,359.030 172.390,358.320 171.680 C 357.954 171.314,349.596 171.200,323.143 171.200 L 288.445 171.200 287.823 172.089 M117.920 172.480 C 118.514 173.074,118.588 183.054,118.010 184.574 L 117.620 185.600 90.057 185.600 L 62.493 185.600 62.252 184.700 C 61.787 182.964,61.973 172.987,62.480 172.480 C 63.174 171.786,117.226 171.786,117.920 172.480 M223.907 196.300 L 224.014 206.400 217.450 206.400 C 209.555 206.400,210.400 207.640,210.400 196.047 C 210.400 184.959,209.684 185.951,217.590 186.090 L 223.800 186.200 223.907 196.300 M76.223 206.889 C 75.747 207.568,75.616 208.724,75.666 211.789 L 75.732 215.800 75.999 212.000 C 76.146 209.910,76.406 207.885,76.576 207.500 C 76.865 206.847,78.229 206.800,97.029 206.800 L 117.172 206.800 117.686 207.700 C 117.969 208.195,118.302 210.400,118.428 212.600 L 118.655 216.600 118.728 211.962 C 118.831 205.333,121.250 206.000,97.091 206.000 L 76.845 206.000 76.223 206.889 M259.200 220.396 C 259.200 220.648,253.303 220.830,242.900 220.900 L 226.600 221.009 243.093 221.105 L 259.587 221.200 259.693 231.700 L 259.800 242.200 266.000 242.222 L 272.200 242.244 266.200 242.022 L 260.200 241.800 260.200 231.600 L 260.200 221.400 266.000 221.183 L 271.800 220.966 265.900 220.883 C 262.289 220.832,260.000 220.645,260.000 220.400 C 260.000 220.180,259.820 220.000,259.600 220.000 C 259.380 220.000,259.200 220.178,259.200 220.396 M89.766 221.100 C 99.466 221.182,103.098 221.341,103.566 221.706 C 104.126 222.143,104.136 222.119,103.651 221.500 C 103.145 220.855,102.062 220.807,89.851 220.894 L 76.600 220.989 89.766 221.100 M154.000 221.087 C 168.732 221.367,181.508 221.373,181.339 221.100 C 181.236 220.935,173.738 220.840,164.676 220.888 C 155.614 220.937,150.810 221.026,154.000 221.087 M104.093 232.302 L 104.000 242.003 76.532 241.994 C 55.397 241.987,48.919 241.872,48.432 241.493 C 47.874 241.058,47.864 241.082,48.349 241.700 C 48.832 242.316,49.684 242.400,55.420 242.400 C 61.294 242.400,61.959 242.469,62.124 243.100 C 62.298 243.767,62.309 243.767,62.354 243.100 C 62.397 242.443,63.674 242.400,83.190 242.400 L 103.980 242.400 104.101 248.900 L 104.221 255.400 104.311 248.910 L 104.400 242.420 110.900 242.299 L 117.400 242.179 110.907 242.089 L 104.414 242.000 104.300 232.300 L 104.185 222.600 104.093 232.302 M273.772 232.000 C 273.772 237.170,273.829 239.285,273.899 236.700 C 273.968 234.115,273.968 229.885,273.899 227.300 C 273.829 224.715,273.772 226.830,273.772 232.000 M223.872 242.300 C 230.071 242.362,240.331 242.362,246.672 242.300 C 253.012 242.238,247.940 242.187,235.400 242.187 C 222.860 242.187,217.672 242.238,223.872 242.300 M210.157 250.000 C 210.157 252.970,210.220 254.185,210.297 252.700 C 210.374 251.215,210.374 248.785,210.297 247.300 C 210.220 245.815,210.157 247.030,210.157 250.000 M195.340 255.620 C 195.072 255.888,192.671 255.997,188.697 255.920 C 185.275 255.854,182.559 255.935,182.661 256.100 C 183.049 256.725,195.063 256.447,195.600 255.800 C 196.167 255.117,195.975 254.985,195.340 255.620 M62.744 256.104 C 62.911 256.271,72.127 256.361,83.224 256.304 L 103.400 256.200 82.920 256.000 C 71.656 255.890,62.576 255.937,62.744 256.104 M316.750 256.111 C 316.921 256.282,319.838 256.371,323.231 256.310 L 329.400 256.198 322.919 255.999 C 319.354 255.889,316.578 255.940,316.750 256.111 M137.300 256.297 C 138.785 256.374,141.215 256.374,142.700 256.297 C 144.185 256.220,142.970 256.157,140.000 256.157 C 137.030 256.157,135.815 256.220,137.300 256.297 M218.325 256.299 C 221.914 256.366,227.674 256.366,231.125 256.299 C 234.576 256.233,231.640 256.178,224.600 256.178 C 217.560 256.179,214.736 256.233,218.325 256.299 M255.100 256.282 C 255.595 256.378,256.405 256.378,256.900 256.282 C 257.395 256.187,256.990 256.109,256.000 256.109 C 255.010 256.109,254.605 256.187,255.100 256.282 " stroke="none" fill="#fb34f4" fill-rule="evenodd"></path><path id="path4" d="M278.973 9.600 C 278.973 14.990,279.030 17.195,279.099 14.500 C 279.168 11.805,279.168 7.395,279.099 4.700 C 279.030 2.005,278.973 4.210,278.973 9.600 M0.000 184.800 L 0.000 215.600 22.340 215.600 C 37.529 215.600,45.084 215.741,45.940 216.039 L 47.200 216.478 47.200 229.011 C 47.200 244.326,46.361 242.800,54.776 242.800 L 61.095 242.800 61.343 244.300 C 61.480 245.125,61.593 248.059,61.596 250.820 C 61.599 254.186,61.758 255.998,62.080 256.320 C 62.772 257.012,103.628 257.012,104.320 256.320 C 104.651 255.989,104.800 253.964,104.800 249.800 C 104.800 242.252,104.233 242.800,112.034 242.800 C 120.342 242.800,119.600 244.166,119.600 228.876 C 119.600 214.340,118.984 215.600,126.085 215.600 C 132.279 215.600,131.588 212.986,131.595 236.438 C 131.601 259.389,130.573 256.800,139.685 256.800 C 148.502 256.800,147.600 258.850,147.600 238.822 L 147.600 222.815 148.500 222.596 C 148.995 222.476,156.600 222.428,165.400 222.489 L 181.400 222.600 181.504 239.164 C 181.577 250.581,181.747 255.895,182.053 256.264 C 182.858 257.234,195.855 257.018,196.386 256.026 C 196.655 255.523,196.800 248.328,196.800 235.426 L 196.800 215.600 209.953 215.600 L 223.107 215.600 223.348 216.500 C 223.481 216.995,223.592 218.055,223.595 218.856 C 223.598 219.686,223.929 220.717,224.364 221.256 L 225.129 222.200 241.064 222.300 C 249.829 222.355,257.405 222.494,257.900 222.608 L 258.800 222.815 258.800 231.961 L 258.800 241.107 257.900 241.348 C 257.405 241.481,246.551 241.592,233.780 241.595 C 216.260 241.599,210.442 241.718,210.080 242.080 C 209.406 242.754,209.406 255.646,210.080 256.320 C 210.434 256.674,214.043 256.800,223.833 256.800 L 237.107 256.800 237.348 257.700 C 237.481 258.195,237.592 261.041,237.595 264.024 C 237.602 271.400,237.830 271.600,246.229 271.600 L 251.138 271.600 252.369 270.369 L 253.600 269.138 253.600 263.743 C 253.600 256.970,253.682 256.800,256.934 256.800 C 260.377 256.800,260.400 256.758,260.400 250.570 C 260.400 247.671,260.513 244.737,260.650 244.050 L 260.900 242.800 267.241 242.800 C 275.551 242.800,274.892 243.815,274.726 231.271 C 274.566 219.066,275.188 220.000,267.218 220.000 C 260.995 220.000,260.400 219.834,260.400 218.094 C 260.400 215.409,258.278 215.600,288.167 215.600 L 315.107 215.600 315.348 216.500 C 315.481 216.995,315.592 226.049,315.595 236.620 C 315.599 251.029,315.720 255.960,316.080 256.320 C 316.754 256.994,329.646 256.994,330.320 256.320 C 330.680 255.960,330.800 250.942,330.800 236.200 L 330.800 216.561 332.128 216.080 C 333.122 215.721,341.841 215.600,366.728 215.600 L 400.000 215.600 400.000 184.800 L 400.000 154.000 200.000 154.000 L 0.000 154.000 0.000 184.800 M252.320 157.680 C 252.646 158.006,252.800 159.893,252.800 163.558 C 252.800 168.871,252.817 168.974,253.875 170.078 L 254.950 171.200 264.261 171.200 C 273.057 171.200,273.595 171.243,273.986 171.974 C 274.506 172.946,274.526 184.781,274.009 185.600 C 273.681 186.119,270.345 186.227,249.315 186.400 L 225.000 186.600 224.893 196.051 L 224.786 205.503 225.693 205.746 C 226.192 205.880,233.800 205.997,242.600 206.007 C 255.802 206.022,258.732 206.125,259.352 206.595 C 260.363 207.361,260.680 211.826,260.003 215.780 C 259.725 217.407,259.610 219.186,259.748 219.734 L 259.998 220.730 266.380 220.865 C 274.535 221.038,273.777 219.964,273.905 231.519 C 274.036 243.309,274.803 242.200,266.515 242.200 L 259.800 242.200 259.693 231.700 L 259.587 221.200 243.693 221.196 C 222.275 221.190,224.240 221.904,223.807 213.967 C 223.420 206.896,224.134 207.600,217.355 207.600 C 211.739 207.600,211.534 207.570,210.582 206.618 L 209.600 205.636 209.600 196.295 C 209.600 184.391,208.882 185.437,217.167 185.272 L 223.600 185.145 223.600 179.061 C 223.600 170.729,223.158 171.200,230.980 171.200 C 238.255 171.200,237.600 171.867,237.600 164.456 C 237.600 156.785,237.157 157.200,245.343 157.200 C 249.863 157.200,251.986 157.346,252.320 157.680 M118.320 171.680 C 118.994 172.354,118.994 185.246,118.320 185.920 C 117.956 186.284,111.196 186.400,90.344 186.400 C 75.221 186.400,62.768 186.535,62.672 186.700 C 62.576 186.865,62.366 199.375,62.207 214.500 L 61.917 242.000 82.958 242.000 L 104.000 242.000 104.000 232.080 C 104.000 224.898,103.868 222.028,103.520 221.680 C 103.166 221.326,99.605 221.200,89.984 221.200 L 76.928 221.200 76.455 220.161 C 75.597 218.277,75.362 208.223,76.148 207.023 L 76.818 206.000 97.078 206.000 C 115.039 206.000,117.417 206.072,118.040 206.636 C 119.052 207.552,118.707 241.084,117.678 241.900 C 117.233 242.252,115.179 242.400,110.724 242.400 L 104.400 242.400 104.400 248.669 C 104.400 257.381,107.120 256.400,82.952 256.400 C 59.228 256.400,62.000 257.429,62.000 248.626 L 62.000 242.400 55.449 242.400 C 50.589 242.400,48.787 242.267,48.470 241.884 C 48.052 241.380,47.974 238.474,47.380 201.123 C 47.100 183.450,46.240 185.200,55.200 185.200 L 61.600 185.200 61.600 178.974 C 61.600 175.447,61.780 172.412,62.014 171.974 C 62.526 171.017,117.371 170.731,118.320 171.680 M146.320 171.680 C 146.678 172.038,146.800 176.356,146.800 188.641 L 146.800 205.122 148.060 205.561 C 150.285 206.336,181.054 206.158,181.357 205.367 C 181.491 205.019,181.600 197.537,181.600 188.741 C 181.600 178.481,181.748 172.470,182.014 171.974 C 182.577 170.923,195.148 170.773,196.006 171.807 C 196.655 172.590,196.170 255.095,195.511 255.900 C 194.747 256.834,182.928 256.587,182.414 255.626 C 182.148 255.130,182.000 249.101,182.000 238.800 C 182.000 228.499,181.852 222.470,181.586 221.974 C 180.929 220.746,148.430 220.770,147.200 222.000 C 146.426 222.774,146.400 223.333,146.400 239.186 C 146.400 255.509,146.397 255.574,145.546 256.029 C 144.570 256.551,133.472 256.405,132.929 255.862 C 132.603 255.537,132.225 235.129,131.787 194.260 C 131.585 175.458,131.630 173.014,132.189 172.160 C 132.919 171.047,145.267 170.627,146.320 171.680 M358.320 171.680 C 359.030 172.390,358.992 185.343,358.278 185.935 C 357.933 186.221,353.264 186.408,344.511 186.484 C 337.226 186.548,331.174 186.692,331.061 186.805 C 330.949 186.918,330.731 202.308,330.578 221.005 C 330.334 250.664,330.221 255.089,329.687 255.700 C 329.155 256.310,328.285 256.400,322.952 256.400 C 317.524 256.400,316.787 256.320,316.466 255.700 C 316.266 255.312,315.979 239.868,315.822 221.013 C 315.667 202.320,315.453 186.885,315.346 186.713 C 315.240 186.541,309.144 186.400,301.799 186.400 C 285.616 186.400,287.200 187.225,287.200 178.800 C 287.200 174.178,287.328 172.795,287.823 172.089 L 288.445 171.200 323.143 171.200 C 349.596 171.200,357.954 171.314,358.320 171.680 M75.348 216.500 C 75.481 216.995,75.592 218.145,75.595 219.056 C 75.606 222.486,75.199 222.390,90.200 222.502 L 103.400 222.600 103.400 232.000 L 103.400 241.400 83.100 241.504 L 62.800 241.607 62.800 228.604 L 62.800 215.600 68.953 215.600 C 74.996 215.600,75.111 215.616,75.348 216.500 M258.350 242.250 L 259.600 242.500 259.600 249.026 C 259.600 256.427,259.800 256.016,256.058 256.301 C 252.282 256.589,252.400 256.361,252.400 263.369 C 252.400 270.915,252.891 270.400,245.694 270.400 C 237.914 270.400,238.400 270.842,238.400 263.760 C 238.400 255.564,239.936 256.401,224.886 256.394 C 208.961 256.387,210.235 256.888,210.088 250.575 C 209.941 244.215,210.263 242.682,211.818 242.348 C 213.366 242.016,256.724 241.925,258.350 242.250 " stroke="none" fill="#cc14fc" fill-rule="evenodd"></path></g></svg>