<?xml version="1.0" encoding="utf-8"?>
<svg viewBox="0 0 500 500" xmlns="http://www.w3.org/2000/svg">
  <path class="st0" d="M 250.473 485.741 C 381.227 485.741 486.405 380.562 486.405 249.809 C 486.405 119.055 381.227 13.877 250.473 13.877 C 119.72 13.877 14.542 119.055 14.542 249.809 C 14.542 380.562 119.72 485.741 250.473 485.741 Z" style="fill: rgb(39, 117, 202);"/>
  <path class="st1" d="M 315.355 287.157 C 315.355 252.758 294.711 240.961 253.423 236.03 C 223.931 232.09 218.033 224.234 218.033 210.479 C 218.033 196.724 227.871 187.877 247.524 187.877 C 265.219 187.877 275.058 193.775 279.965 208.521 C 280.956 211.47 283.905 213.428 286.854 213.428 L 302.591 213.428 C 306.531 213.428 309.48 210.479 309.48 206.539 L 309.48 205.548 C 305.54 183.913 287.845 167.209 265.243 165.251 L 265.243 141.658 C 265.243 137.718 262.294 134.768 257.386 133.801 L 242.641 133.801 C 238.7 133.801 235.751 136.75 234.784 141.658 L 234.784 164.26 C 205.293 168.2 186.607 187.853 186.607 212.437 C 186.607 244.878 206.26 257.665 247.548 262.573 C 275.081 267.48 283.929 273.379 283.929 289.115 C 283.929 304.852 270.174 315.658 251.488 315.658 C 225.937 315.658 217.089 304.852 214.14 290.106 C 213.149 286.166 210.2 284.208 207.251 284.208 L 190.547 284.208 C 186.607 284.208 183.658 287.157 183.658 291.097 L 183.658 292.088 C 187.598 316.672 203.311 334.367 235.751 339.274 L 235.751 362.867 C 235.751 366.808 238.7 369.757 243.608 370.724 L 258.354 370.724 C 262.294 370.724 265.243 367.775 266.21 362.867 L 266.21 339.274 C 295.678 334.343 315.355 313.699 315.355 287.157 L 315.355 287.157 Z" style="fill: rgb(255, 255, 255);"/>
  <path class="st1" d="M 200.338 390.377 C 123.66 362.844 84.33 277.319 112.854 201.632 C 127.6 160.344 160.041 128.894 200.338 114.148 C 204.278 112.19 206.236 109.241 206.236 104.31 L 206.236 90.555 C 206.236 86.615 204.278 83.666 200.338 82.698 C 199.347 82.698 197.389 82.698 196.398 83.689 C 103.016 113.181 51.89 212.461 81.381 305.866 C 99.076 360.909 141.355 403.188 196.398 420.883 C 200.338 422.841 204.254 420.883 205.245 416.943 C 206.236 415.952 206.236 414.985 206.236 413.003 L 206.236 399.248 C 206.236 396.275 203.287 392.359 200.338 390.377 Z M 304.526 83.666 C 300.585 81.707 296.669 83.666 295.678 87.606 C 294.687 88.597 294.687 89.564 294.687 91.546 L 294.687 105.301 C 294.687 109.241 297.636 113.157 300.585 115.139 C 377.263 142.672 416.593 228.198 388.069 303.885 C 373.323 345.173 340.883 376.622 300.585 391.368 C 296.645 393.326 294.687 396.275 294.687 401.206 L 294.687 414.961 C 294.687 418.901 296.645 421.85 300.585 422.818 C 301.576 422.818 303.535 422.818 304.526 421.827 C 397.907 392.335 449.034 293.055 419.542 199.65 C 401.847 143.64 358.601 101.361 304.526 83.666 L 304.526 83.666 Z" style="fill: rgb(255, 255, 255);"/>
</svg>